<svg id="ic-calendar" xmlns="http://www.w3.org/2000/svg" width="11.698" height="13.369" viewBox="0 0 11.698 13.369">
  <path id="calendar" d="M.313,5.013H11.385a.314.314,0,0,1,.313.313v6.789a1.254,1.254,0,0,1-1.253,1.253H1.253A1.254,1.254,0,0,1,0,12.116V5.327A.314.314,0,0,1,.313,5.013ZM11.7,3.864v-.94a1.254,1.254,0,0,0-1.253-1.253H9.191V.313A.314.314,0,0,0,8.878,0H7.833A.314.314,0,0,0,7.52.313V1.671H4.178V.313A.314.314,0,0,0,3.864,0H2.82a.314.314,0,0,0-.313.313V1.671H1.253A1.254,1.254,0,0,0,0,2.924v.94a.314.314,0,0,0,.313.313H11.385A.314.314,0,0,0,11.7,3.864Z" fill="#ec5724"/>
</svg>
