<svg xmlns="http://www.w3.org/2000/svg" width="27.073" height="18.049" viewBox="0 0 27.073 18.049">
  <path id="ic-eye" d="M26.91,72.338A15.075,15.075,0,0,0,13.537,64,15.078,15.078,0,0,0,.164,72.339a1.521,1.521,0,0,0,0,1.372,15.075,15.075,0,0,0,13.373,8.338A15.078,15.078,0,0,0,26.91,73.71a1.521,1.521,0,0,0,0-1.372ZM13.537,79.793a6.768,6.768,0,1,1,6.768-6.768A6.768,6.768,0,0,1,13.537,79.793Zm0-11.28a4.48,4.48,0,0,0-1.19.178A2.249,2.249,0,0,1,9.2,71.835a4.5,4.5,0,1,0,4.334-3.323Z" transform="translate(-0.001 -64)" fill="#ec5724"/>
</svg>
