<svg xmlns="http://www.w3.org/2000/svg" width="26" height="26" viewBox="0 0 26 26">
  <g id="ic-email" transform="translate(8562 547)">
    <rect id="Rectangle_157" data-name="Rectangle 157" width="26" height="26" transform="translate(-8562 -547)" fill="none"/>
    <g id="Group_50" data-name="Group 50" transform="translate(-8565.153 -546.705)">
      <path id="envelope" d="M21.106,69.328a.253.253,0,0,1,.408.2v8.593A2.017,2.017,0,0,1,19.5,80.135H2.017A2.017,2.017,0,0,1,0,78.118V69.53a.251.251,0,0,1,.408-.2c.941.731,2.189,1.66,6.475,4.773.887.647,2.382,2.008,3.874,2,1.5.013,3.025-1.378,3.878-2C18.921,70.992,20.164,70.059,21.106,69.328ZM10.757,74.757c.975.017,2.378-1.227,3.084-1.74,5.576-4.046,6-4.4,7.286-5.408a1,1,0,0,0,.387-.794v-.8A2.017,2.017,0,0,0,19.5,64H2.017A2.017,2.017,0,0,0,0,66.017v.8a1.012,1.012,0,0,0,.387.794c1.286,1,1.71,1.361,7.286,5.408C8.378,73.53,9.782,74.773,10.757,74.757Z" transform="translate(5.153 -59.295)" fill="#ec5724"/>
    </g>
  </g>
</svg>
