<svg xmlns="http://www.w3.org/2000/svg" width="59" height="45" viewBox="0 0 59 45">
  <g id="ic-feedback" transform="translate(9323 1112)">
    <path id="Icon_awesome-comment-dots" data-name="Icon awesome-comment-dots" d="M18,2.25C8.058,2.25,0,8.8,0,16.875a12.981,12.981,0,0,0,4.008,9.19A17.888,17.888,0,0,1,.155,32.8a.559.559,0,0,0-.105.612.551.551,0,0,0,.513.338,16.08,16.08,0,0,0,9.886-3.614A21.444,21.444,0,0,0,18,31.5c9.942,0,18-6.546,18-14.625S27.942,2.25,18,2.25ZM9,19.125a2.25,2.25,0,1,1,2.25-2.25A2.248,2.248,0,0,1,9,19.125Zm9,0a2.25,2.25,0,1,1,2.25-2.25A2.248,2.248,0,0,1,18,19.125Zm9,0a2.25,2.25,0,1,1,2.25-2.25A2.248,2.248,0,0,1,27,19.125Z" transform="translate(-9311 -1107.25)" fill="#fff"/>
    <rect id="Rectangle_160" data-name="Rectangle 160" width="59" height="45" transform="translate(-9323 -1112)" fill="none"/>
  </g>
</svg>
