<svg id="IW_Icon" data-name="IW Icon" xmlns="http://www.w3.org/2000/svg" width="15.652" height="14.001" viewBox="0 0 15.652 14.001">
  <path id="Path_6" data-name="Path 6" d="M978.265,3191.677c-.531.813-.981,1.561-1.5,2.275a7.084,7.084,0,0,1-1.177,1.268,1.712,1.712,0,0,1-2.586-.272,6.537,6.537,0,0,1-.961-2.168,11.469,11.469,0,0,1-.531-4.085,3.922,3.922,0,0,1,.09-.538c.294-1.286,1.37-1.676,2.851-1.618a.791.791,0,0,1,.876.837c.046.618.059,1.237.086,1.856.02.468.019.938.065,1.405a7.641,7.641,0,0,0,.3,1.541c.087-.142.187-.28.261-.426.642-1.273,1.279-2.548,1.92-3.821.134-.266.3-.523.417-.793a1.545,1.545,0,0,1,1.334-.8,5.4,5.4,0,0,1,.96-.028c.594.027.9.241,1,.713a5.932,5.932,0,0,1,.117,1.037,22.566,22.566,0,0,0,.924,5.421.871.871,0,0,0,.15.223,1.374,1.374,0,0,0,.146-.217,8.389,8.389,0,0,0,.521-2.813c.047-.815.01-1.635.116-2.444a2.575,2.575,0,0,1,2.357-1.818c.564-.053.884.137,1.021.589a4.251,4.251,0,0,1-.034,2.029,16.085,16.085,0,0,1-2.48,6.173,6.133,6.133,0,0,1-.709.873,2.485,2.485,0,0,1-2.881.4,3.423,3.423,0,0,1-1.349-1.2,7.915,7.915,0,0,1-1.135-2.832C978.377,3192.211,978.329,3191.974,978.265,3191.677Z" transform="translate(-971.479 -3182.76)" fill="#144473"/>
  <path id="Path_7" data-name="Path 7" d="M973.682,3182.76a1.37,1.37,0,1,1,.015,2.664,1.528,1.528,0,0,1-1.652-1.333A1.485,1.485,0,0,1,973.682,3182.76Z" transform="translate(-971.337 -3182.76)" fill="#144473"/>
</svg>
