<svg xmlns="http://www.w3.org/2000/svg" width="28" height="28" viewBox="0 0 28 28">
  <g id="ic_dashboard" transform="translate(9991 8205)">
    <rect id="Rectangle_155" data-name="Rectangle 155" width="28" height="28" transform="translate(-9991 -8205)" fill="rgba(128,57,57,0)"/>
    <g id="ic_dashboard-2" data-name="ic_dashboard" transform="translate(-10022.5 -8217)">
      <path id="home" d="M12.5,37.239l-8.232,6.78v7.317a.714.714,0,0,0,.714.714l5-.013a.714.714,0,0,0,.711-.714V47.049a.714.714,0,0,1,.714-.714h2.857a.714.714,0,0,1,.714.714v4.27a.714.714,0,0,0,.714.717l5,.014a.714.714,0,0,0,.714-.714V44.013l-8.23-6.775a.544.544,0,0,0-.683,0Zm13,4.608L21.774,38.77V32.586a.536.536,0,0,0-.536-.536h-2.5a.536.536,0,0,0-.536.536v3.242l-4-3.289a2.143,2.143,0,0,0-2.724,0L.179,41.847a.536.536,0,0,0-.071.755l1.139,1.384A.536.536,0,0,0,2,44.058l10.5-8.65a.544.544,0,0,1,.683,0l10.5,8.65a.536.536,0,0,0,.755-.071L25.582,42.6a.536.536,0,0,0-.076-.756Z" transform="translate(32.515 -16.05)" fill="#fff"/>
    </g>
  </g>
</svg>
