<svg xmlns="http://www.w3.org/2000/svg" width="28" height="28" viewBox="0 0 28 28">
  <g id="ic_system" transform="translate(9991 8134)">
    <rect id="Rectangle_156" data-name="Rectangle 156" width="28" height="28" transform="translate(-9991 -8134)" fill="rgba(128,57,57,0)"/>
    <g id="ic_system-2" data-name="ic_system" transform="translate(-9989.859 -8134)">
      <path id="cogs" d="M20.062,7.594l-.321.56a.484.484,0,0,1-.592.212,4.331,4.331,0,0,1-1.258-.729.487.487,0,0,1-.11-.615l.321-.56a3.383,3.383,0,0,1-.623-1.074h-.647a.484.484,0,0,1-.478-.4,4.416,4.416,0,0,1,0-1.454.487.487,0,0,1,.478-.408h.647A3.383,3.383,0,0,1,18.1,2.048l-.321-.56a.482.482,0,0,1,.11-.615A4.383,4.383,0,0,1,19.149.143a.484.484,0,0,1,.592.212l.321.56a3.483,3.483,0,0,1,1.242,0l.321-.56a.484.484,0,0,1,.592-.212,4.331,4.331,0,0,1,1.258.729.487.487,0,0,1,.11.615l-.321.56a3.384,3.384,0,0,1,.623,1.074h.647a.484.484,0,0,1,.478.4,4.416,4.416,0,0,1,0,1.454.487.487,0,0,1-.478.408h-.647a3.383,3.383,0,0,1-.623,1.074l.321.56a.482.482,0,0,1-.11.615,4.383,4.383,0,0,1-1.258.729.484.484,0,0,1-.592-.212l-.321-.56A3.483,3.483,0,0,1,20.062,7.594Zm-.412-2.3A1.464,1.464,0,0,0,21.72,3.22,1.464,1.464,0,0,0,19.651,5.289Zm-4.519,6.032,1.321.658a.942.942,0,0,1,.412,1.141,9.253,9.253,0,0,1-1.67,2.579.937.937,0,0,1-1.188.208l-1.141-.658a6.733,6.733,0,0,1-2.152,1.242v1.317a.938.938,0,0,1-.772.925,8.814,8.814,0,0,1-2.975,0,.942.942,0,0,1-.784-.925V16.491a6.807,6.807,0,0,1-2.152-1.242L2.891,15.9A.938.938,0,0,1,1.7,15.7,9.239,9.239,0,0,1,.05,13.121.946.946,0,0,1,.461,11.98l1.305-.658a6.79,6.79,0,0,1,0-2.485L.461,8.174A.935.935,0,0,1,.05,7.038,9.2,9.2,0,0,1,1.7,4.459a.937.937,0,0,1,1.188-.208l1.141.658A6.733,6.733,0,0,1,6.184,3.667V2.346a.933.933,0,0,1,.768-.921,8.939,8.939,0,0,1,2.979,0,.942.942,0,0,1,.784.925V3.663a6.807,6.807,0,0,1,2.152,1.242l1.141-.658a.938.938,0,0,1,1.188.208,9.19,9.19,0,0,1,1.65,2.579.937.937,0,0,1-.392,1.141l-1.321.658A6.811,6.811,0,0,1,15.132,11.322Zm-4.609.827A2.931,2.931,0,0,0,6.38,8.006,2.931,2.931,0,0,0,10.523,12.149Zm9.54,7.161-.321.56a.484.484,0,0,1-.592.212,4.331,4.331,0,0,1-1.258-.729.487.487,0,0,1-.11-.615l.321-.56A3.383,3.383,0,0,1,17.48,17.1h-.647a.484.484,0,0,1-.478-.4,4.416,4.416,0,0,1,0-1.454.487.487,0,0,1,.478-.408h.647a3.383,3.383,0,0,1,.623-1.074l-.321-.56a.482.482,0,0,1,.11-.615,4.383,4.383,0,0,1,1.258-.729.484.484,0,0,1,.592.212l.321.56a3.483,3.483,0,0,1,1.242,0l.321-.56a.484.484,0,0,1,.592-.212,4.331,4.331,0,0,1,1.258.729.487.487,0,0,1,.11.615l-.321.56a3.384,3.384,0,0,1,.623,1.074h.647a.484.484,0,0,1,.478.4,4.416,4.416,0,0,1,0,1.454.487.487,0,0,1-.478.408h-.647a3.383,3.383,0,0,1-.623,1.074l.321.56a.482.482,0,0,1-.11.615,4.383,4.383,0,0,1-1.258.729.484.484,0,0,1-.592-.212l-.321-.56A3.483,3.483,0,0,1,20.062,19.309ZM19.651,17a1.464,1.464,0,0,0,2.069-2.069A1.464,1.464,0,0,0,19.651,17Z" transform="translate(0.009 3.638)" fill="#fff"/>
    </g>
  </g>
</svg>
