<svg xmlns="http://www.w3.org/2000/svg" width="28" height="28" viewBox="0 0 28 28">
  <g id="ic_trans" transform="translate(9991 8001)">
    <rect id="Rectangle_158" data-name="Rectangle 158" width="28" height="28" transform="translate(-9991 -8001)" fill="rgba(128,57,57,0)"/>
    <g id="ic_trans-2" data-name="ic_trans" transform="translate(-9988 -7999.5)">
      <path id="biohazard" d="M11.179,4.319a6.225,6.225,0,0,1,2.062.375A3.506,3.506,0,0,0,14.393,3.1a8.1,8.1,0,0,0-6.416,0A3.506,3.506,0,0,0,9.129,4.69,6.254,6.254,0,0,1,11.179,4.319ZM6.325,17.077a3.556,3.556,0,0,0,.957-1.656,6.2,6.2,0,0,1-2.3-4.28,3.268,3.268,0,0,0-1.031-.18,3.181,3.181,0,0,0-.879.121A8.133,8.133,0,0,0,6.325,17.077Zm8.755-1.664a3.569,3.569,0,0,0,.957,1.66,8.108,8.108,0,0,0,3.241-5.994,3.245,3.245,0,0,0-.867-.117,3.34,3.34,0,0,0-1.039.184,6.2,6.2,0,0,1-2.292,4.268Zm4.432-8.005a6.335,6.335,0,0,0-2.159-.777,6.8,6.8,0,0,0,.391-2.195,6.8,6.8,0,0,0-1.6-4.381.306.306,0,0,0-.391-.07.323.323,0,0,0-.141.379,4.758,4.758,0,0,1-4.428,6.3A4.747,4.747,0,0,1,6.5,1.867a4.924,4.924,0,0,1,.258-1.5.323.323,0,0,0-.141-.379.306.306,0,0,0-.391.07,6.818,6.818,0,0,0-1.6,4.381,6.7,6.7,0,0,0,.391,2.195,6.365,6.365,0,0,0-2.159.777,6.683,6.683,0,0,0-2.9,3.608.325.325,0,0,0,.137.383.305.305,0,0,0,.391-.062,4.657,4.657,0,0,1,1.14-.98,4.63,4.63,0,0,1,6.4,1.757A4.869,4.869,0,0,1,6.306,18.67a4.588,4.588,0,0,1-1.4.523.323.323,0,0,0-.25.316.315.315,0,0,0,.254.312,6.344,6.344,0,0,0,6.268-2.335,6.344,6.344,0,0,0,6.268,2.335.315.315,0,0,0,.254-.312.319.319,0,0,0-.25-.316,4.452,4.452,0,0,1-1.4-.523,4.869,4.869,0,0,1-1.714-6.556,4.63,4.63,0,0,1,6.4-1.757,4.743,4.743,0,0,1,1.14.98.305.305,0,0,0,.39.062.323.323,0,0,0,.137-.383,6.622,6.622,0,0,0-2.894-3.608Zm-8.333,5.037a1.874,1.874,0,1,1,1.874-1.874A1.875,1.875,0,0,1,11.179,12.446Z" transform="translate(0.066 2.556)" fill="#fff"/>
    </g>
  </g>
</svg>
