<svg id="Layer_1" data-name="Layer 1" xmlns="http://www.w3.org/2000/svg" viewBox="0 0 261.2 282.62"><defs><style>.cls-1{fill:#ec5724;}</style></defs><path class="cls-1" d="M274.1,164.57c-.58,64.15-45.71,118.14-108.72,128.87C96.61,305.16,27.25,260.71,14.91,185.94,7,137.82,22.75,97.09,59.71,64.9c5.73-5,11.79-9.37,20-8.7a21.71,21.71,0,0,1,11.6,39.09A88.4,88.4,0,0,0,63,132C41.41,184.35,75.86,243.71,132,250.92c54.57,7,101.92-37,98.27-91.79-1.71-25.52-12.88-46.57-33.06-62.49-6.76-5.33-10.89-11.79-10.15-20.49,1.47-17.3,20.33-25.85,34.6-15.53,18.76,13.57,32.49,31.32,41.76,52.52C270.63,129.53,273.84,146.75,274.1,164.57Z" transform="translate(-12.9 -12.69)"/><path class="cls-1" d="M165.41,88.78q0,26.22,0,52.46c0,13.47-9.38,23.55-21.87,23.56s-21.88-10-21.9-23.51q-.06-53,0-105.93c0-13.11,9.51-22.75,22.09-22.67,12.26.08,21.58,9.75,21.63,22.63.06,17.82,0,35.64,0,53.46Z" transform="translate(-12.9 -12.69)"/></svg>