<svg id="Layer_1" data-name="Layer 1" xmlns="http://www.w3.org/2000/svg" xmlns:xlink="http://www.w3.org/1999/xlink" viewBox="0 0 674.29 397.57"><defs><style>.cls-1{fill:none;}.cls-2{clip-path:url(#clip-path);}.cls-3{fill:#144372;}.cls-4{clip-path:url(#clip-path-2);}.cls-5{fill:url(#linear-gradient);}.cls-6{clip-path:url(#clip-path-3);}.cls-7{fill:url(#linear-gradient-2);}</style><clipPath id="clip-path" transform="translate(65.18 44.79)"><rect class="cls-1" x="-101.48" y="2.01" width="829.1" height="355.33"/></clipPath><clipPath id="clip-path-2" transform="translate(65.18 44.79)"><path class="cls-1" d="M17,99.49c0,48.16,82.3,194.55,83.13,196a10.78,10.78,0,0,0,18.81,0c1.41-2.51,16-28.6,32.66-61.64a9,9,0,0,0,.25-7.54l-7-16.53a3,3,0,0,0-5.45-.14c-9.65,19.81-20,39.85-29.9,58.17-33-61-71-141-71-168.36a71,71,0,0,1,142,0c0,5.93-1.8,14.36-4.93,24.52a9,9,0,0,0,.4,6.51l8.42,18.12a3,3,0,0,0,5.55-.25c7.3-19.7,12.12-37.14,12.12-48.9A92.54,92.54,0,0,0,17,99.49"/></clipPath><linearGradient id="linear-gradient" x1="-1022.75" y1="535.45" x2="-1019.17" y2="535.45" gradientTransform="translate(52672.85 -27404.46) scale(51.47)" gradientUnits="userSpaceOnUse"><stop offset="0" stop-color="#faa750"/><stop offset="0.28" stop-color="#faa750"/><stop offset="0.31" stop-color="#f89649"/><stop offset="0.37" stop-color="#f57a3e"/><stop offset="0.43" stop-color="#f36334"/><stop offset="0.51" stop-color="#f1512d"/><stop offset="0.6" stop-color="#f04428"/><stop offset="0.72" stop-color="#ef3d25"/><stop offset="1" stop-color="#ef3b24"/></linearGradient><clipPath id="clip-path-3" transform="translate(65.18 44.79)"><path class="cls-1" d="M100.18,63.83c-1.42,2.5-16.06,28.59-32.66,61.64a9.07,9.07,0,0,0-.26,7.54l7,16.53a3,3,0,0,0,5.46.14c9.64-19.81,20-39.84,29.9-58.17,33,61,71,141,71,168.36a71,71,0,0,1-142,0c0-5.94,1.8-14.36,4.94-24.52a9.09,9.09,0,0,0-.41-6.51l-8.42-18.12a3,3,0,0,0-5.55.24C21.86,230.66,17,248.11,17,259.87a92.54,92.54,0,0,0,185.08,0c0-48.15-82.3-194.55-83.13-196a10.79,10.79,0,0,0-18.81,0"/></clipPath><linearGradient id="linear-gradient-2" x1="-1021.47" y1="530.33" x2="-1017.89" y2="530.33" gradientTransform="translate(52872.23 -27157.57) scale(51.68)" gradientUnits="userSpaceOnUse"><stop offset="0" stop-color="#154372"/><stop offset="0.32" stop-color="#154372"/><stop offset="0.47" stop-color="#20597a"/><stop offset="0.77" stop-color="#3c908f"/><stop offset="1" stop-color="#54bea0"/></linearGradient></defs><g class="cls-2"><path class="cls-3" d="M334.29,165c10.8-6.18,16.7-16.17,16.7-28.42,0-24.73-16.61-38.36-46.77-38.36h-54l.21,128.57A11.25,11.25,0,0,0,261.68,238h43.76c34.05,0,51.3-13.52,51.3-40.2,0-15.29-7.94-26.85-22.45-32.82m1.24,32.2c0,15.64-8.2,21.45-30.29,21.45h-34V176.76h34.8c20.12,0,29.47,6.49,29.47,20.42M271.26,157.6v-40h33c17.44,0,25.57,6.23,25.57,19.61,0,12.4-9.8,20.42-25,20.42Z" transform="translate(65.18 44.79)"/><path class="cls-3" d="M483.23,195.29c-3.17-.4-4.49,1.46-4.66,2.31-5.58,14.52-21.19,23.91-39.75,23.91C410.55,221.51,390,199,390,168c0-31.38,19.89-53.3,48.37-53.3,16,0,31.58,8.45,38.89,21.09,1.09,1.61,3,2,5.66,1.22a12.05,12.05,0,0,0,8.81-11.55c0-5.82-5.64-13.3-14.38-19-10.47-6.89-24.17-10.68-38.56-10.68-41.22,0-70,29.89-70,72.67,0,42.43,28.52,72.06,69.38,72.06,37,0,56-23.43,56-33.42,0-7.87-7.41-11.32-11-11.76" transform="translate(65.18 44.79)"/><path class="cls-3" d="M609.11,140.05c0-27.37-17.74-41.84-51.31-41.84H510V229c0,6.13,3.5,9.79,9.37,9.79H521c5.64,0,9.58-4,9.58-9.79V182.1h11.62l42.14,50.56c3.45,4.14,7.14,6.16,11.26,6.16,5.72,0,11.91-8.19,12.6-9.12l.58-.81-40.25-47.18c25.81-2.59,40.56-17.66,40.56-41.66m-21.22.41c0,14.76-10.25,22.89-28.85,22.89H530.6V117.57h27.61c20,0,29.68,7.49,29.68,22.89" transform="translate(65.18 44.79)"/></g><g class="cls-4"><rect class="cls-5" x="-21.9" y="-13.68" width="262.97" height="335.34" transform="translate(24.94 83.56) rotate(-17)"/></g><g class="cls-6"><rect class="cls-7" x="82.22" y="103.12" width="185.07" height="294.08"/></g><g class="cls-2"><path class="cls-3" d="M248.31,302.72a13.08,13.08,0,0,0,9.28,4.39c3.93,0,7.09-2.55,7.09-6.38,0-8.88-17.7-7.09-17.7-18.22,0-5,4.34-9.18,11-9.18,3.47,0,9.7,1.48,9.7,6.18v2.55h-3.38v-1.69c0-2.14-2.95-3.72-6.27-3.72-4.65,0-7.35,2.7-7.35,5.76,0,8.32,17.71,6.28,17.71,18.11,0,5.36-4.14,9.91-10.87,9.91a15.21,15.21,0,0,1-11.38-5.1Z" transform="translate(65.18 44.79)"/><path class="cls-3" d="M287.24,283.54a13.45,13.45,0,1,1-13.52,13.31,13.28,13.28,0,0,1,13.52-13.31m.05,23.77a10.12,10.12,0,0,0,9.95-10.46,10,10,0,1,0-19.95,0,10.13,10.13,0,0,0,10,10.46" transform="translate(65.18 44.79)"/><path class="cls-3" d="M307.55,278.07a1,1,0,0,0-1.12-1.12h-2.15v-3h3.62c2.2,0,3.12.91,3.12,3.1v28.63a1,1,0,0,0,1.12,1.13h2.14v3h-3.61c-2.2,0-3.12-.92-3.12-3.11Z" transform="translate(65.18 44.79)"/><path class="cls-3" d="M321.12,288.28a1,1,0,0,0-1.12-1.13h-2.14v-3h3.62c2.19,0,3.11.92,3.11,3.11v18.42a1,1,0,0,0,1.13,1.12h2.14v3h-3.62c-2.2,0-3.12-.91-3.12-3.11Zm-.1-14.34h3.37v4.39H321Z" transform="translate(65.18 44.79)"/><path class="cls-3" d="M343.67,283.54a9.08,9.08,0,0,1,8.38,4.79h.09s-.09-.87-.09-1.94v-8.31a1,1,0,0,0-1.13-1.13h-2.14v-3h3.62c2.19,0,3.11.91,3.11,3.1v28.63a1,1,0,0,0,1.12,1.12h2.15v3H355.2c-2.14,0-3.06-1-3.06-2.86a11,11,0,0,1,.11-1.63h-.11s-2.09,5.11-8.82,5.11c-6.89,0-11.18-5.52-11.18-13.48s4.8-13.41,11.53-13.41M352.14,297c0-5.2-2.64-10.3-8.16-10.3-4.53,0-8.26,3.83-8.26,10.3s3.31,10.36,8.11,10.36c4.28,0,8.31-3.06,8.31-10.36" transform="translate(65.18 44.79)"/><path class="cls-3" d="M379.5,302.72a13.08,13.08,0,0,0,9.28,4.39c3.93,0,7.1-2.55,7.1-6.38,0-8.88-17.71-7.09-17.71-18.22,0-5,4.34-9.18,11-9.18,3.47,0,9.7,1.48,9.7,6.18v2.55h-3.37v-1.69c0-2.14-3-3.72-6.28-3.72-4.65,0-7.34,2.7-7.34,5.76,0,8.32,17.7,6.28,17.7,18.11,0,5.36-4.13,9.91-10.87,9.91a15.21,15.21,0,0,1-11.38-5.1Z" transform="translate(65.18 44.79)"/><path class="cls-3" d="M418.43,283.54a13.45,13.45,0,1,1-13.52,13.31,13.28,13.28,0,0,1,13.52-13.31m.05,23.77a10.12,10.12,0,0,0,9.95-10.46,10,10,0,1,0-19.95,0,10.13,10.13,0,0,0,10,10.46" transform="translate(65.18 44.79)"/><path class="cls-3" d="M438.74,278.07a1,1,0,0,0-1.12-1.12h-2.14v-3h3.62c2.19,0,3.11.91,3.11,3.1v28.63a1,1,0,0,0,1.12,1.13h2.15v3h-3.62c-2.2,0-3.12-.92-3.12-3.11Z" transform="translate(65.18 44.79)"/><path class="cls-3" d="M451.9,288.28a1,1,0,0,0-1.12-1.12h-2.14v-3h3.63c2.18,0,3.1.92,3.1,3v12.4c0,4,.67,7.6,5.62,7.6,5.82,0,9.44-5.15,9.44-10.72V284.15h3.46v21.53A1,1,0,0,0,475,306.8h2.14v3h-3.51c-2.15,0-3.12-.93-3.12-2.87v-1.17a17,17,0,0,1,.1-1.84h-.1a10.94,10.94,0,0,1-10,6.49c-6.08,0-8.63-3.27-8.63-9.95Z" transform="translate(65.18 44.79)"/><path class="cls-3" d="M483.85,287.06h-3.37v-2.91h3.42v-7.09h3.42v7.09h6.42v2.91h-6.42v13.06c0,6,3.83,6.79,5.77,6.79a5.54,5.54,0,0,0,1.17-.11v3.12a10.18,10.18,0,0,1-1.49.1c-2.95,0-8.92-1-8.92-9.55Z" transform="translate(65.18 44.79)"/><path class="cls-3" d="M501.66,288.28a1,1,0,0,0-1.13-1.13H498.4v-3H502c2.19,0,3.11.92,3.11,3.11v18.42a1,1,0,0,0,1.12,1.12h2.15v3h-3.63c-2.19,0-3.11-.91-3.11-3.11Zm-.1-14.34h3.36v4.39h-3.36Z" transform="translate(65.18 44.79)"/><path class="cls-3" d="M526.1,283.54a13.45,13.45,0,1,1-13.52,13.31,13.28,13.28,0,0,1,13.52-13.31m0,23.77a10.12,10.12,0,0,0,10-10.46,10,10,0,1,0-20,0,10.13,10.13,0,0,0,10,10.46" transform="translate(65.18 44.79)"/><path class="cls-3" d="M546.87,288.28a1,1,0,0,0-1.12-1.12H543.6v-3h3.58c2.14,0,3.11.92,3.11,2.85v1.18a17,17,0,0,1-.1,1.84h.1a10.89,10.89,0,0,1,10.2-6.48c6.38,0,8.62,3.62,8.62,9.95v12.19a1,1,0,0,0,1.13,1.12h2.14v3h-3.62c-2.2,0-3.11-.93-3.11-3.12V294.4c0-4-.62-7.6-5.57-7.6a9.74,9.74,0,0,0-9.33,7.25,12.49,12.49,0,0,0-.41,3.46v12.31h-3.47Z" transform="translate(65.18 44.79)"/><path class="cls-3" d="M577.69,303.54a10.46,10.46,0,0,0,7.91,3.88c2.86,0,5.41-1.38,5.41-4.09,0-5.61-14.39-4.59-14.39-12.86,0-4.64,4-6.93,9.13-6.93,2.6,0,7.81,1,7.81,4.64v2.19h-3.27v-1.22c0-1.89-2.75-2.6-4.44-2.6-3.57,0-5.71,1.22-5.71,3.72,0,5.77,14.39,4.44,14.39,13,0,4.29-3.88,7.2-9,7.2a12.3,12.3,0,0,1-9.85-4.5Z" transform="translate(65.18 44.79)"/></g></svg>