<svg xmlns="http://www.w3.org/2000/svg" width="35.453" height="28.073" viewBox="0 0 35.453 28.073">
  <g id="nav-icon" transform="translate(3662 5697)">
    <path id="angle-right" d="M41.627,110.924l-11.5,11.5a2.021,2.021,0,0,1-2.867,0l-1.911-1.911a2.021,2.021,0,0,1,0-2.867l8.153-8.153-8.153-8.153a2.021,2.021,0,0,1,0-2.867l1.9-1.928a2.021,2.021,0,0,1,2.867,0l11.5,11.5A2.024,2.024,0,0,1,41.627,110.924Z" transform="translate(-3668.769 -5791.95)" fill="#144473"/>
    <path id="angle-left" d="M25.258,108.049l11.5-11.5a2.021,2.021,0,0,1,2.867,0l1.911,1.911a2.021,2.021,0,0,1,0,2.867l-8.145,8.162,8.153,8.153a2.021,2.021,0,0,1,0,2.867l-1.911,1.92a2.021,2.021,0,0,1-2.867,0l-11.5-11.5A2.024,2.024,0,0,1,25.258,108.049Z" transform="translate(-3686.162 -5792.45)" fill="none" stroke="#144473" stroke-width="1" stroke-dasharray="3 3"/>
  </g>
</svg>
