<svg xmlns="http://www.w3.org/2000/svg" width="30" height="30.484" viewBox="0 0 30 30.484">
  <path id="power-off" d="M31.709,3.272a15,15,0,1,1-17.431.006,1.456,1.456,0,0,1,2.117.466l.956,1.7a1.451,1.451,0,0,1-.4,1.875,10.16,10.16,0,1,0,12.091-.006,1.443,1.443,0,0,1-.393-1.869l.956-1.7a1.45,1.45,0,0,1,2.1-.472Zm-6.29,12.7V1.452A1.448,1.448,0,0,0,23.968,0H22.032A1.448,1.448,0,0,0,20.58,1.452V15.968a1.448,1.448,0,0,0,1.452,1.452h1.935A1.448,1.448,0,0,0,25.419,15.968Z" transform="translate(-8)" fill="#ec5724"/>
</svg>
