<svg id="Layer_1" data-name="Layer 1" xmlns="http://www.w3.org/2000/svg" viewBox="0 0 2400.39 1401.1"><defs><style>.cls-1{fill:#fff;}</style></defs><path class="cls-1" d="M419.23,1089.91c2.16-3.7,3.94-6.45,5.43-9.34Q480.37,972.17,536,863.72c1.37-2.67,2.51-5.47,4.09-8,5.9-9.44,17-9,22.4.86a39.87,39.87,0,0,1,1.57,3.68c8.67,20.56,17.25,41.15,26,61.67,5.06,11.83,4.35,23.19-1.42,34.63q-62.55,124-130,245.45c-6.66,12-16.14,20.27-29.63,23.39-20.14,4.64-38.77-3.92-49.53-23.18q-20.72-37.08-40.77-74.52c-67.64-125.89-132.3-253.28-190-384.06-31.76-71.92-61.59-144.6-84-220.09C55.27,491.91,46.63,460,44.6,427A350.57,350.57,0,0,1,46,367.14c7.08-64.51,29.48-123.59,67.79-176C176.42,105.38,260.36,53.24,365.41,37.91c192.67-28.1,373.74,95.84,419,285.4,8.25,34.56,11.69,69.64,8.94,105.11-2.43,31.34-9.88,61.8-19,91.76-8.43,27.69-18.07,55-27.22,82.49a35.71,35.71,0,0,1-2.63,6.46c-4.88,8.57-15.83,9.06-21.42,1a41.87,41.87,0,0,1-3.25-6.19c-10.11-21.74-20-43.57-30.36-65.21-5.16-10.82-5.41-21.52-2.33-33,5.7-21.2,11.67-42.39,15.82-63.92,7-36.33,2.94-72.35-6.74-107.74-29.58-108.17-118-189.18-229.11-208C308.75,99.3,167.06,205.54,137.08,352.58c-9.1,44.63-5.23,87.94,7.1,131.23,17.08,60,39.55,118.05,63.85,175.39,55.42,130.73,118.62,257.72,184.91,383.21,7.93,15,16,29.95,24.08,44.91A24.27,24.27,0,0,0,419.23,1089.91Z" transform="translate(-43.56 -33.95)"/><path class="cls-1" d="M418.64,378.32c-10.85,20.32-21.16,39-30.85,57.93q-43.64,85.41-86.87,171c-3.19,6.3-5.86,13-14.87,12.41-8.44-.49-10.51-6.94-13.11-13.14-8.1-19.35-16.11-38.74-24.51-58-5.6-12.82-5.16-25,1.39-37.39q63.45-119.59,126.76-239.28A88.66,88.66,0,0,1,383.82,260a43.88,43.88,0,0,1,71.68,1.93c1.68,2.48,3.12,5.12,4.57,7.74,82.69,149.61,161,301.43,230.14,457.83,31.93,72.2,61.74,145.25,84,221.14,7.42,25.25,13.83,50.74,17.38,76.87,5,36.72,2.61,73.18-4.77,109.29-28.38,138.73-133,249.87-269.81,287.1-205.18,55.82-416.81-71.32-464-278.67-7.06-31-10.59-62.42-9.15-94.17,1.26-27.72,6.67-54.93,14.57-81.43,10.18-34.12,21.65-67.84,32.61-101.72a29.28,29.28,0,0,1,3.14-7.3,12.31,12.31,0,0,1,20.36-.27,36.92,36.92,0,0,1,3.19,6.19c10.12,21.75,19.94,43.62,30.41,65.19,5.59,11.52,6,22.67,2.24,34.8-7.82,25.12-14.41,50.54-17.62,76.78-2.83,23.11-.89,46,3.21,68.6a288.18,288.18,0,0,0,213.61,228.63c155.55,39.36,315.38-59.81,350.06-216.58,10.67-48.23,6.48-95-7.31-141.91-17.79-60.5-40.55-119.13-65.29-177C566,660.17,496.11,521.64,422.76,384.8,421.85,383.1,420.69,381.53,418.64,378.32Z" transform="translate(-43.56 -33.95)"/><path class="cls-1" d="M989.19,404.3c4.54-.2,7.8-.47,11.06-.47,68,0,136-.19,203.94.05,34.11.12,67.82,3.31,100.18,15.39,57.38,21.42,90.58,67.11,93,128.31.56,14.34.36,28.63-2.87,42.74-7.57,33.09-25.92,58.72-53.67,77.88-2.94,2-5.89,4-9.73,6.68,4.1,2,7.39,3.46,10.61,5.09,41.11,20.8,68.39,52.58,76.66,98.66,6.07,33.84,3,67.15-9.93,99.12-13.11,32.44-36.86,54.93-68.15,69.81-27.76,13.21-57.34,19.42-87.73,21.65-19.25,1.4-38.6,1.73-57.91,1.82-51.65.24-103.31.11-155,.07-31,0-49.89-18.87-49.94-49.8q-.23-137.46-.35-274.92-.11-114.46-.17-228.93Zm85.5,487.2c2.83.25,4.76.58,6.69.58,52.29-.2,104.58-.11,156.87-.82,19.35-.26,38.41-3.71,56.33-11.74,17.69-7.92,30-20.82,35.52-39.53a112.16,112.16,0,0,0,2.43-56.29c-5.36-24.91-21.25-40.85-44.45-50a147.51,147.51,0,0,0-52.67-10.21c-51.62-.55-103.25-.47-154.87-.57-1.87,0-3.75.72-5.85,1.15Zm.33-247.06c3.2.26,5.79.64,8.38.65,41,0,82,.32,122.93-.16A183.38,183.38,0,0,0,1244,641c40.54-9.09,70.31-37.9,67.35-86.7-1.94-31.92-18.09-53.86-48.38-64-15.61-5.22-31.77-7.19-48.19-7.19q-65.48,0-130.93,0c-2.89,0-5.79.36-8.8.56Z" transform="translate(-43.56 -33.95)"/><path class="cls-1" d="M2041.7,404.42c3.89-.26,6.48-.59,9.08-.59,64.65.08,129.3-.12,193.94.42,34.12.28,67.75,4.65,99.94,16.93,62.51,23.85,94.13,70.22,98.64,136,1.65,24,.39,48-6.52,71.3-15.55,52.47-51,85.57-102,102.55-14.74,4.91-30.38,7.1-45.61,10.55-2.48.56-4.94,1.17-8.69,2.06L2442.79,934c-9.41,13.15-19.72,24.32-32.58,33-13.39,9-27.36,9.24-41.77,2.72-10.93-4.95-19.1-13.17-26.62-22.2q-59.19-71.06-118.4-142.07c-15.14-18.17-30.44-36.23-45.36-54.58-3.72-4.57-7.66-6.62-13.56-6.37-9.65.4-19.32.06-29,.13-2.91,0-5.82.37-9.83.64v12.33c0,57.31.08,114.63-.1,172,0,6.58-.41,13.49-2.41,19.67-4.75,14.67-15.43,23-30.86,24.54a100.82,100.82,0,0,1-18.95-.08c-15.92-1.5-27-11.64-30.05-27.46a90,90,0,0,1-1.55-16.87q-.12-257.92-.06-515.86Zm84.39,262.63a20.35,20.35,0,0,0,3.84.91c44-.2,88,.07,131.92-.92a116.44,116.44,0,0,0,51.71-13.82c21.55-11.33,35.48-28.73,41.34-52.44,3.32-13.43,3.55-27.13,1.93-40.73-4.1-34.57-23.16-57.28-56-68.37a168.93,168.93,0,0,0-54-8.52q-56.47-.15-112.95,0a68.52,68.52,0,0,0-7.73.9Z" transform="translate(-43.56 -33.95)"/><path class="cls-1" d="M1749.47,394c51.76.52,97.44,9.49,140.08,31.5,19.68,10.15,37.64,22.71,53,38.81,8.8,9.23,16.45,19.27,21.41,31.12,12.33,29.42-3.76,60.31-35,67.2-10,2.2-15.68-.09-21.24-8.66-30.68-47.2-75.15-72.85-129.89-80.57-55.44-7.82-105.9,5.33-149.54,41.27a178.33,178.33,0,0,0-52.2,71c-27.24,66.62-28.42,134-.22,200.32,26.25,61.69,72.75,101.28,139.34,114.08,52,10,101.56,2.05,146.38-27.67,23.64-15.66,41.47-36.53,51.87-63.11,3-7.79,9.14-13.48,20.56-11.55,29,4.89,54.63,31.45,39.86,67.16-6.73,16.29-17.05,30.09-29.23,42.59-29.33,30.09-65,49.79-105,61.24-60.8,17.38-121.92,17.48-182.21-1.9-76-24.42-131-73.69-161.66-147.29-37.69-90.63-36.9-182.45,4.43-271.61,38.56-83.18,105.93-131.45,195.72-148.65,8.17-1.56,16.43-2.84,24.71-3.58C1731.6,394.69,1742.61,394.35,1749.47,394Z" transform="translate(-43.56 -33.95)"/><path class="cls-1" d="M1400.77,1171.1V1130L1389,1128.4V1117c6.48,0,12.4-.29,18.28.09,5,.33,7.76,3.57,8.26,8.49a97.41,97.41,0,0,1,.41,10q0,50.45,0,100.91c0,3.91.39,7.82.62,12.11l12,1.72v10.36c-17.67,4.29-23.41,1.8-28-12.57-7.69,9.14-16.92,15-28.86,16.24-19.22,2.07-36.15-6.56-44.2-24.08-8.94-19.44-9.25-39.46-.37-59a43.74,43.74,0,0,1,54.23-23.68,44.88,44.88,0,0,1,10.5,5.58C1394.83,1165.14,1397.25,1167.88,1400.77,1171.1Zm2.58,40.06c-2.14-8.28-3.38-17-6.63-24.77-4.71-11.34-14-17.77-26.52-18.09-12.78-.33-22.71,5.56-28.5,16.86-8.63,16.84-8.61,34.29.46,50.82,11.59,21.11,41,21,53.53.44C1400.32,1228.76,1401.83,1220.32,1403.35,1211.16Z" transform="translate(-43.56 -33.95)"/><path class="cls-1" d="M1504.76,1243.35l7.86-9.86c3,2.4,5.64,4.74,8.49,6.76,11.21,8,23.23,12.91,37.36,9.61,10.68-2.5,18-8.76,20.34-19.58,2.42-11.07-2.33-19.69-11.34-25.69-6.33-4.21-13.33-7.42-20.07-11-7.61-4.07-15.57-7.58-22.82-12.22-12.16-7.79-18.55-19.15-16.75-33.82,1.84-15,10.91-24.64,24.64-30,12.22-4.78,24.72-4.64,37.21-1,17.66,5.22,22.81,12.9,21.25,32.26h-11.11c-2.38-5.22-3.62-10.61-6.81-14.29-4.51-5.2-11.53-6.37-18.26-6.82-8.17-.53-16,1.08-22.7,6-11.45,8.33-12.76,23.57-1.89,32.58,6.54,5.42,14.69,8.91,22.23,13.07,8.71,4.8,18.08,8.62,26.22,14.24,13.71,9.46,18.22,23.2,14.88,39.43-2.51,12.21-9.67,20.9-20.7,26.57C1551.08,1270.73,1517.84,1262.16,1504.76,1243.35Z" transform="translate(-43.56 -33.95)"/><path class="cls-1" d="M1058,1149.26h-11.45a36.24,36.24,0,0,1-.86-5.79c0-5.33-2.86-8.88-7.16-11.16-12.4-6.58-25.06-6.77-37.07.6-13.23,8.13-14.25,24.63-2.12,34.44,5.1,4.12,11.25,7,17.13,10.08,8.54,4.46,17.61,8,25.83,13,17,10.27,23.29,25.13,19.25,43.13-3.73,16.61-16.73,28-35.38,30.39-20.9,2.65-38.53-4.11-53.87-19.9l8.54-10.46c3.22,2.58,5.89,5,8.82,7,11.61,8.08,24.06,13,38.45,8.93,10.12-2.84,16.92-9.27,18.93-19.77,2-10.19-1.92-18.55-10.29-24.25-6.57-4.47-13.8-8-20.81-11.75-7.59-4.1-15.59-7.56-22.86-12.15-12.2-7.7-18.8-19-17.11-33.66,1.77-15.38,11-25.36,25.28-30.59,15.49-5.68,30.84-4.46,45.5,2.83C1058.75,1126.11,1062.11,1135.51,1058,1149.26Z" transform="translate(-43.56 -33.95)"/><path class="cls-1" d="M2107.48,1155.44c30.88,0,55,23.64,55.17,53.94a54.64,54.64,0,0,1-55.18,55.2c-31-.07-55.14-24.24-55-55.24C2052.54,1178.88,2076.51,1155.41,2107.48,1155.44Zm.17,96.13c22.6,0,40.12-18.56,40-42.29-.11-23.1-17.68-40.82-40.35-40.68s-40.14,18-40.09,41C2067.26,1233.2,2085,1251.62,2107.65,1251.57Z" transform="translate(-43.56 -33.95)"/><path class="cls-1" d="M1139.78,1155.44c30.84.19,54.83,24.16,54.49,54.48-.34,31.12-24.71,55.08-55.59,54.66s-55.28-25.22-54.64-55.78S1108.76,1155.25,1139.78,1155.44Zm39.72,54c0-23-17.66-40.85-40.29-40.8s-40.13,17.79-40.16,40.89c0,23.68,17.58,42.08,40.25,42.08S1179.54,1233,1179.5,1209.4Z" transform="translate(-43.56 -33.95)"/><path class="cls-1" d="M1725.92,1209.22c.15,31.19-23.77,55.38-54.75,55.38s-55.23-24.14-55.21-55.1c0-30.43,24-54,54.91-54.06C1702,1155.43,1725.77,1178.63,1725.92,1209.22Zm-95,0c-.11,23.9,17.16,42.27,39.85,42.37s40.47-18.37,40.54-41.87c.07-23-17.44-41-40-41.1C1648.51,1168.47,1631.07,1186,1631,1209.2Z" transform="translate(-43.56 -33.95)"/><path class="cls-1" d="M2294.68,1250.21v10.6a14.63,14.63,0,0,1-3.62,1.15c-23.11.91-24-1.85-23.58-22.08.27-12.31.06-24.64,0-37,0-3-.06-6-.14-9-.48-18.79-9.47-29.84-33.7-23.07-17,4.75-27.54,20.2-27.93,39.52-.28,13.65,0,27.31-.09,41,0,3.25-.27,6.51-.43,10.23h-13.57c-.62-9.92-.21-19.8-.28-29.64-.08-10,0-20,0-30v-30.33l-12.78-2.5v-11c2.15-.23,3.73-.51,5.33-.56,18.44-.59,20.23.92,22.51,19.89,2.1-2.48,3.69-4.46,5.38-6.34,13.12-14.56,29.38-18.56,48-14.1,10,2.37,16.46,8.85,19.13,18.47a77.26,77.26,0,0,1,2.58,18.68c.37,14.31.11,28.64.13,43C2281.71,1248.94,2281.72,1248.94,2294.68,1250.21Z" transform="translate(-43.56 -33.95)"/><path class="cls-1" d="M1896.42,1248.61l12.11,1.72v11a52,52,0,0,1-6,.72c-18.52,0-19.68-.64-21.34-19.21-2.12,2.25-3.8,3.92-5.35,5.7-12.69,14.55-28.73,18.8-47,14.47-13.37-3.17-19.56-13.19-21.27-26.07-.87-6.57-.7-13.3-.76-20-.11-12,0-24-.06-36-.07-9.67-.15-9.66-9.78-11.06a21.41,21.41,0,0,1-3.13-1v-9.7c.6-.49,1.08-1.21,1.62-1.26,22.69-2.24,25.57.37,25.58,23q0,19.5,0,39c0,2,0,4,.06,6,.82,21,13.67,29.82,33.78,23.21,15.08-5,25.91-20.38,26.5-38.78.45-14,.11-28,.19-42,0-3.26.28-6.52.45-10.3h13.22c.16,3.46.44,7,.44,10.53,0,23,0,46,.06,69C1895.73,1241.24,1896.16,1244.8,1896.42,1248.61Z" transform="translate(-43.56 -33.95)"/><path class="cls-1" d="M2308.65,1245.75l7.52-8.72c3,2.46,5.48,4.64,8.1,6.64,8.59,6.56,18.29,9.44,29,7.88a26.48,26.48,0,0,0,9.36-3.08c9.36-5.46,10.41-16.63,1.74-23.1-5.23-3.92-11.61-6.32-17.54-9.28-7.71-3.85-15.94-6.88-23.12-11.55-10.55-6.87-13.79-17.25-10.6-28.69a24,24,0,0,1,14-16c14.09-6.27,28.49-6.24,42.62-.2,9.52,4.08,11.7,9.15,10.73,22.8H2368.3c-.69-5.79-2.71-11.28-10-13.28-8.8-2.42-17.24-2-25.14,2.31a12.43,12.43,0,0,0-3,19.64,35.12,35.12,0,0,0,9.71,6.79c5.33,2.7,11,4.7,16.46,7.13,4.54,2,9.16,4,13.47,6.44,10,5.73,16.17,14.12,15,26.06-1.17,12.14-8.57,19.74-19.7,24.1C2347.6,1268.51,2320.25,1263.07,2308.65,1245.75Z" transform="translate(-43.56 -33.95)"/><path class="cls-1" d="M1977.76,1250.37v10.91a31.45,31.45,0,0,1-40-22.86,73.5,73.5,0,0,1-1.71-15.82c-.23-14,0-28-.1-41.95,0-3.24-.29-6.49-.46-10.17l-12.57-1.33v-10.78l12.75-1.42v-27.07h14.56v27.44h25.38v12.4h-23.94c-.55,2.56-1.18,4.11-1.19,5.67-.07,16.31-.25,32.62.08,48.93a40,40,0,0,0,2.88,13.53c2.8,7,8.52,10.85,16.08,11.74C1972.07,1249.89,1974.66,1250.08,1977.76,1250.37Z" transform="translate(-43.56 -33.95)"/><path class="cls-1" d="M1752.56,1129.74l-12.27-1.19c-.23-3.54-.44-6.74-.67-10.24,7.06-3,14-1.94,20.75-.87,4.11.64,6.09,3.94,6.66,7.8a62.26,62.26,0,0,1,.31,9q0,51.45,0,102.91c0,3.59.3,7.18.49,11.41l12.34,1.8c.16,3.18.33,6.61.49,9.94-1.46.76-2.3,1.55-3.18,1.6-25.94,1.41-24.46-2.84-24.36-22.11.17-33,.06-65.94,0-98.91C1753.16,1137.3,1752.79,1133.76,1752.56,1129.74Z" transform="translate(-43.56 -33.95)"/><path class="cls-1" d="M1221.36,1130l-12.78-1.54c-.19-3.24-.4-6.66-.63-10.42,7-2.5,13.58-1.72,20.07-.76,4.55.68,6.78,4,7.26,8.37a81.47,81.47,0,0,1,.23,9q0,51.46,0,102.92c0,3.56.37,7.12.59,11l12.17,1.68v11.37c-6,0-11.88.23-17.74-.06-5.48-.28-8.33-3.8-9-9a76.71,76.71,0,0,1-.24-9q0-51,0-101.91Z" transform="translate(-43.56 -33.95)"/><path class="cls-1" d="M1995.72,1157.6c4.28,0,7.88-.07,11.47,0,12.13.29,15.34,3.21,15.48,15.57.25,21.29.08,42.58.09,63.87v11.32l12.41,2c.15,3.24.31,6.7.51,11.12-6.8,0-13,.23-19.13-.08-4.07-.21-6.79-2.83-7.52-6.85a63.89,63.89,0,0,1-1-10.86c-.09-20.3,0-40.59,0-60.89v-11.38l-12.23-2.07Z" transform="translate(-43.56 -33.95)"/><path class="cls-1" d="M1275.68,1171.48l-11.9-2.22V1159c.87-.49,1.42-1,2-1.09,28.69-2.11,25,5.53,25,23.6q0,27.91,0,55.84c0,3.57.34,7.14.54,11.2l11.7,1.8V1261a11,11,0,0,1-2.83,1c-22,1.23-23.84-.49-23.84-22.66,0-18.94,0-37.89,0-56.83C1276.31,1178.88,1275.91,1175.31,1275.68,1171.48Z" transform="translate(-43.56 -33.95)"/><path class="cls-1" d="M1276.25,1117.16h12.92v16.68h-12.92Z" transform="translate(-43.56 -33.95)"/><path class="cls-1" d="M2008.3,1117h12.49v16.66H2008.3Z" transform="translate(-43.56 -33.95)"/></svg>